C:\OpenCap\opencap-processing\Data\f695a51c-2aed-4feb-b28d-2290ed51e9ec\OpenSimData\Dynamics\Javelin25_1\GRF_Javelin25_1_0.mot
version=1
nRows=4
nColumns=109
inDegrees=yes
endheader 
time	ground_force_SmoothSphereHalfSpaceForce_s1_r_vx	ground_force_SmoothSphereHalfSpaceForce_s1_r_vy	ground_force_SmoothSphereHalfSpaceForce_s1_r_vz	ground_force_SmoothSphereHalfSpaceForce_s1_r_px	ground_force_SmoothSphereHalfSpaceForce_s1_r_py	ground_force_SmoothSphereHalfSpaceForce_s1_r_pz	ground_torque_SmoothSphereHalfSpaceForce_s1_r_x	ground_torque_SmoothSphereHalfSpaceForce_s1_r_y	ground_torque_SmoothSphereHalfSpaceForce_s1_r_z	ground_force_SmoothSphereHalfSpaceForce_s2_r_vx	ground_force_SmoothSphereHalfSpaceForce_s2_r_vy	ground_force_SmoothSphereHalfSpaceForce_s2_r_vz	ground_force_SmoothSphereHalfSpaceForce_s2_r_px	ground_force_SmoothSphereHalfSpaceForce_s2_r_py	ground_force_SmoothSphereHalfSpaceForce_s2_r_pz	ground_torque_SmoothSphereHalfSpaceForce_s2_r_x	ground_torque_SmoothSphereHalfSpaceForce_s2_r_y	ground_torque_SmoothSphereHalfSpaceForce_s2_r_z	ground_force_SmoothSphereHalfSpaceForce_s3_r_vx	ground_force_SmoothSphereHalfSpaceForce_s3_r_vy	ground_force_SmoothSphereHalfSpaceForce_s3_r_vz	ground_force_SmoothSphereHalfSpaceForce_s3_r_px	ground_force_SmoothSphereHalfSpaceForce_s3_r_py	ground_force_SmoothSphereHalfSpaceForce_s3_r_pz	ground_torque_SmoothSphereHalfSpaceForce_s3_r_x	ground_torque_SmoothSphereHalfSpaceForce_s3_r_y	ground_torque_SmoothSphereHalfSpaceForce_s3_r_z	ground_force_SmoothSphereHalfSpaceForce_s4_r_vx	ground_force_SmoothSphereHalfSpaceForce_s4_r_vy	ground_force_SmoothSphereHalfSpaceForce_s4_r_vz	ground_force_SmoothSphereHalfSpaceForce_s4_r_px	ground_force_SmoothSphereHalfSpaceForce_s4_r_py	ground_force_SmoothSphereHalfSpaceForce_s4_r_pz	ground_torque_SmoothSphereHalfSpaceForce_s4_r_x	ground_torque_SmoothSphereHalfSpaceForce_s4_r_y	ground_torque_SmoothSphereHalfSpaceForce_s4_r_z	ground_force_SmoothSphereHalfSpaceForce_s5_r_vx	ground_force_SmoothSphereHalfSpaceForce_s5_r_vy	ground_force_SmoothSphereHalfSpaceForce_s5_r_vz	ground_force_SmoothSphereHalfSpaceForce_s5_r_px	ground_force_SmoothSphereHalfSpaceForce_s5_r_py	ground_force_SmoothSphereHalfSpaceForce_s5_r_pz	ground_torque_SmoothSphereHalfSpaceForce_s5_r_x	ground_torque_SmoothSphereHalfSpaceForce_s5_r_y	ground_torque_SmoothSphereHalfSpaceForce_s5_r_z	ground_force_SmoothSphereHalfSpaceForce_s6_r_vx	ground_force_SmoothSphereHalfSpaceForce_s6_r_vy	ground_force_SmoothSphereHalfSpaceForce_s6_r_vz	ground_force_SmoothSphereHalfSpaceForce_s6_r_px	ground_force_SmoothSphereHalfSpaceForce_s6_r_py	ground_force_SmoothSphereHalfSpaceForce_s6_r_pz	ground_torque_SmoothSphereHalfSpaceForce_s6_r_x	ground_torque_SmoothSphereHalfSpaceForce_s6_r_y	ground_torque_SmoothSphereHalfSpaceForce_s6_r_z	ground_force_SmoothSphereHalfSpaceForce_s1_l_vx	ground_force_SmoothSphereHalfSpaceForce_s1_l_vy	ground_force_SmoothSphereHalfSpaceForce_s1_l_vz	ground_force_SmoothSphereHalfSpaceForce_s1_l_px	ground_force_SmoothSphereHalfSpaceForce_s1_l_py	ground_force_SmoothSphereHalfSpaceForce_s1_l_pz	ground_torque_SmoothSphereHalfSpaceForce_s1_l_x	ground_torque_SmoothSphereHalfSpaceForce_s1_l_y	ground_torque_SmoothSphereHalfSpaceForce_s1_l_z	ground_force_SmoothSphereHalfSpaceForce_s2_l_vx	ground_force_SmoothSphereHalfSpaceForce_s2_l_vy	ground_force_SmoothSphereHalfSpaceForce_s2_l_vz	ground_force_SmoothSphereHalfSpaceForce_s2_l_px	ground_force_SmoothSphereHalfSpaceForce_s2_l_py	ground_force_SmoothSphereHalfSpaceForce_s2_l_pz	ground_torque_SmoothSphereHalfSpaceForce_s2_l_x	ground_torque_SmoothSphereHalfSpaceForce_s2_l_y	ground_torque_SmoothSphereHalfSpaceForce_s2_l_z	ground_force_SmoothSphereHalfSpaceForce_s3_l_vx	ground_force_SmoothSphereHalfSpaceForce_s3_l_vy	ground_force_SmoothSphereHalfSpaceForce_s3_l_vz	ground_force_SmoothSphereHalfSpaceForce_s3_l_px	ground_force_SmoothSphereHalfSpaceForce_s3_l_py	ground_force_SmoothSphereHalfSpaceForce_s3_l_pz	ground_torque_SmoothSphereHalfSpaceForce_s3_l_x	ground_torque_SmoothSphereHalfSpaceForce_s3_l_y	ground_torque_SmoothSphereHalfSpaceForce_s3_l_z	ground_force_SmoothSphereHalfSpaceForce_s4_l_vx	ground_force_SmoothSphereHalfSpaceForce_s4_l_vy	ground_force_SmoothSphereHalfSpaceForce_s4_l_vz	ground_force_SmoothSphereHalfSpaceForce_s4_l_px	ground_force_SmoothSphereHalfSpaceForce_s4_l_py	ground_force_SmoothSphereHalfSpaceForce_s4_l_pz	ground_torque_SmoothSphereHalfSpaceForce_s4_l_x	ground_torque_SmoothSphereHalfSpaceForce_s4_l_y	ground_torque_SmoothSphereHalfSpaceForce_s4_l_z	ground_force_SmoothSphereHalfSpaceForce_s5_l_vx	ground_force_SmoothSphereHalfSpaceForce_s5_l_vy	ground_force_SmoothSphereHalfSpaceForce_s5_l_vz	ground_force_SmoothSphereHalfSpaceForce_s5_l_px	ground_force_SmoothSphereHalfSpaceForce_s5_l_py	ground_force_SmoothSphereHalfSpaceForce_s5_l_pz	ground_torque_SmoothSphereHalfSpaceForce_s5_l_x	ground_torque_SmoothSphereHalfSpaceForce_s5_l_y	ground_torque_SmoothSphereHalfSpaceForce_s5_l_z	ground_force_SmoothSphereHalfSpaceForce_s6_l_vx	ground_force_SmoothSphereHalfSpaceForce_s6_l_vy	ground_force_SmoothSphereHalfSpaceForce_s6_l_vz	ground_force_SmoothSphereHalfSpaceForce_s6_l_px	ground_force_SmoothSphereHalfSpaceForce_s6_l_py	ground_force_SmoothSphereHalfSpaceForce_s6_l_pz	ground_torque_SmoothSphereHalfSpaceForce_s6_l_x	ground_torque_SmoothSphereHalfSpaceForce_s6_l_y	ground_torque_SmoothSphereHalfSpaceForce_s6_l_z	
          5.38000000	         -0.00000000	         -0.00000000	          0.00000000	         -2.16364787	          0.08896224	          0.41998992	          0.00000000	          0.00000000	          0.00000000	         -0.00000000	          0.00000000	          0.00000000	         -2.12564254	          0.02953077	          0.30964186	          0.00000000	          0.00000000	          0.00000000	          0.00000000	         -0.00000000	         -0.00000000	         -2.07515688	          0.02481711	          0.38563289	          0.00000000	          0.00000000	          0.00000000	         -0.00000000	         -0.00000000	          0.00000000	         -2.11813943	          0.05706577	          0.40559392	          0.00000000	          0.00000000	          0.00000000	         -9.97862467	          6.60570913	         -1.12510497	         -2.07893354	         -0.00020816	          0.26701305	          0.00000000	          0.00000000	          0.00000000	          0.00000000	         -0.00000000	          0.00000000	         -2.01971575	          0.00022806	          0.33732829	          0.00000000	          0.00000000	          0.00000000	        -67.61095651	        434.04931929	        -19.78938839	         -1.83611941	         -0.01358192	         -0.12881279	          0.00000000	          0.00000000	          0.00000000	        -55.52351921	        529.00829598	         84.19426501	         -1.67463697	         -0.01584811	         -0.16946221	          0.00000000	          0.00000000	          0.00000000	         -2.70135036	        117.77178509	          6.76434082	         -1.72582907	         -0.00671905	         -0.24334268	          0.00000000	          0.00000000	          0.00000000	        -20.65991891	        236.80838792	          0.44924526	         -1.78330720	         -0.00987403	         -0.18800467	          0.00000000	          0.00000000	          0.00000000	        -14.18477110	        201.58907334	         45.51474733	         -1.60099167	         -0.00886828	         -0.21290657	          0.00000000	          0.00000000	          0.00000000	         -0.00003159	          0.07748126	          0.00744924	         -1.65193995	          0.00579872	         -0.28358564	          0.00000000	          0.00000000	          0.00000000	
          5.39000000	         -0.00000000	         -0.00000000	          0.00000000	         -2.17386622	          0.08813844	          0.40901565	          0.00000000	          0.00000000	          0.00000000	         -0.00000000	          0.00000000	          0.00000000	         -2.11914415	          0.02925726	          0.30467480	          0.00000000	          0.00000000	          0.00000000	          0.00000000	         -0.00000000	         -0.00000000	         -2.07209390	          0.02802602	          0.38336739	          0.00000000	          0.00000000	          0.00000000	         -0.00000000	         -0.00000000	          0.00000000	         -2.12190461	          0.05835634	          0.39902072	          0.00000000	          0.00000000	          0.00000000	         -3.00825713	          1.96451833	         -0.31528109	         -2.06606660	          0.00053639	          0.26719582	          0.00000000	          0.00000000	          0.00000000	          0.00000000	         -0.00000000	          0.00000000	         -2.01167926	          0.00398912	          0.34099334	          0.00000000	          0.00000000	          0.00000000	        -67.87658144	        454.64304291	        -19.89765129	         -1.83578912	         -0.01382932	         -0.12854328	          0.00000000	          0.00000000	          0.00000000	        -46.07905226	        507.12873460	         98.53061601	         -1.67442963	         -0.01597210	         -0.16970448	          0.00000000	          0.00000000	          0.00000000	          2.41443097	        124.08754165	         12.03045436	         -1.72583315	         -0.00655466	         -0.24329279	          0.00000000	          0.00000000	          0.00000000	        -15.58103473	        251.18460933	          5.65665872	         -1.78314957	         -0.00990783	         -0.18783381	          0.00000000	          0.00000000	          0.00000000	         -4.96115762	        192.26180005	         54.47687698	         -1.60090587	         -0.00881857	         -0.21324790	          0.00000000	          0.00000000	          0.00000000	          0.00525907	          0.06421193	          0.01107179	         -1.65205515	          0.00614391	         -0.28353296	          0.00000000	          0.00000000	          0.00000000	
          5.40000000	         -0.00000000	         -0.00000000	          0.00000000	         -2.18213433	          0.08682470	          0.39693661	          0.00000000	          0.00000000	          0.00000000	         -0.00000000	          0.00000000	          0.00000000	         -2.11156464	          0.02942946	          0.29899501	          0.00000000	          0.00000000	          0.00000000	          0.00000000	         -0.00000000	         -0.00000000	         -2.06913446	          0.03109831	          0.38024064	          0.00000000	          0.00000000	          0.00000000	         -0.00000000	         -0.00000000	          0.00000000	         -2.12477620	          0.05931183	          0.39145813	          0.00000000	          0.00000000	          0.00000000	          0.00293306	         -0.00187078	         -0.00007509	         -2.05267823	          0.00206619	          0.26673762	          0.00000000	          0.00000000	          0.00000000	          0.00000000	         -0.00000000	          0.00000000	         -2.00403804	          0.00799153	          0.34384427	          0.00000000	          0.00000000	          0.00000000	        -32.67233710	        331.80564284	        -18.49624540	         -1.83549325	         -0.01383555	         -0.12828128	          0.00000000	          0.00000000	          0.00000000	        -22.81613619	        522.63985618	         72.43015488	         -1.67426632	         -0.01606997	         -0.16993943	          0.00000000	          0.00000000	          0.00000000	          1.77626799	        109.14132893	          5.96888841	         -1.72583748	         -0.00639090	         -0.24327421	          0.00000000	          0.00000000	          0.00000000	         -7.92328521	        199.83827852	         -0.79550629	         -1.78300796	         -0.00982100	         -0.18768356	          0.00000000	          0.00000000	          0.00000000	         -9.25705389	        215.54571869	         48.84641902	         -1.60082958	         -0.00883517	         -0.21359089	          0.00000000	          0.00000000	          0.00000000	         -0.00057706	          0.04617373	          0.00551538	         -1.65211694	          0.00642627	         -0.28351729	          0.00000000	          0.00000000	          0.00000000	
          5.41000000	         -0.00000000	         -0.00000000	          0.00000000	         -2.18737069	          0.08522279	          0.38380188	          0.00000000	          0.00000000	          0.00000000	         -0.00000000	          0.00000000	          0.00000000	         -2.10273820	          0.03008586	          0.29200583	          0.00000000	          0.00000000	          0.00000000	          0.00000000	         -0.00000000	         -0.00000000	         -2.06550582	          0.03386804	          0.37548543	          0.00000000	          0.00000000	          0.00000000	         -0.00000000	         -0.00000000	          0.00000000	         -2.12580466	          0.05994509	          0.38254556	          0.00000000	          0.00000000	          0.00000000	          0.00000006	         -0.00000004	         -0.00000001	         -2.03896228	          0.00426877	          0.26462038	          0.00000000	          0.00000000	          0.00000000	          0.00000000	         -0.00000000	          0.00000000	         -1.99642987	          0.01191766	          0.34467482	          0.00000000	          0.00000000	          0.00000000	          0.00000173	         -0.00004580	         -0.00001436	         -1.83497495	         -0.01249610	         -0.12847919	          0.00000000	          0.00000000	          0.00000000	        -13.11505606	        526.68396628	         85.64980976	         -1.67387483	         -0.01617972	         -0.17021611	          0.00000000	          0.00000000	          0.00000000	         -8.79443431	         33.52326250	          5.57436554	         -1.72505598	         -0.00569303	         -0.24337977	          0.00000000	          0.00000000	          0.00000000	          0.10810784	         -0.68856191	         -0.16583140	         -1.78234609	         -0.00877132	         -0.18782992	          0.00000000	          0.00000000	          0.00000000	        -91.84052806	        311.97416325	         35.67011200	         -1.60013670	         -0.00925053	         -0.21362262	          0.00000000	          0.00000000	          0.00000000	         -0.01068811	          0.01611046	          0.00087260	         -1.65084001	          0.00701249	         -0.28307025	          0.00000000	          0.00000000	          0.00000000	
